<svg xmlns="http://www.w3.org/2000/svg" width="469" height="456" fill="none"><path fill="#fff" fill-opacity=".28" d="M142.83 50.727c36.042 0 65.259 29.218 65.259 65.259 0 15.986-5.749 30.629-15.291 41.976-2.202 2.618-2.548 6.413-.543 9.185 2.087 2.887 6.011 3.7 9.201 2.115 13.221-6.569 28.123-10.263 43.887-10.263 11.763 0 23.045 2.058 33.507 5.832 3.783 1.364 8.087-.006 10.097-3.488 2.082-3.606.941-8.167-2.178-10.924-10.781-9.527-17.579-23.457-17.579-38.975 0-28.716 23.279-51.996 51.996-51.996 28.716 0 51.996 23.28 51.996 51.996 0 28.717-23.28 51.996-51.996 51.996-1.301 0-2.589-.047-3.866-.141-4.38-.323-8.783 1.523-10.979 5.327-2.62 4.539-1.288 10.288 2.714 13.671 19.414 16.408 32.41 40.172 34.688 66.992.321 3.782 3.39 6.832 7.185 6.832 3.022 0 5.659-1.97 6.832-4.754 7.529-17.857 23.774-31.139 43.407-34.514 1.387-.239 2.436-1.42 2.436-2.828 0-1.3-.901-2.42-2.15-2.783-17.088-4.977-29.575-20.753-29.575-39.448 0-22.69 18.394-41.085 41.084-41.085 22.69 0 41.084 18.395 41.084 41.085 0 18.564-12.313 34.251-29.217 39.342-1.463.441-2.521 1.754-2.521 3.281 0 1.569 1.112 2.909 2.634 3.285 25.19 6.229 43.867 28.98 43.867 56.095 0 31.912-25.871 57.782-57.783 57.782-4.473 0-8.828-.509-13.009-1.472-2.901-.668-5.971.634-7.225 3.333-1.099 2.364-.47 5.139 1.273 7.078a36.847 36.847 0 0 1 9.477 24.72c0 20.429-16.561 36.989-36.989 36.99-20.429 0-36.99-16.561-36.99-36.99.001-20.428 16.561-36.988 36.99-36.988.94 0 1.873.035 2.796.104 2.867.215 5.717-1.156 6.929-3.764 1.23-2.647.414-5.769-1.762-7.715-10.251-9.171-17.209-21.948-18.881-36.337-.367-3.156-2.927-5.711-6.105-5.711-2.831 0-5.235 2.043-5.859 4.805-9.023 39.907-42.207 70.649-83.369 76.044-2.733.358-4.853 2.637-4.853 5.392 0 2.499 1.762 4.626 4.148 5.372 18.619 5.818 32.132 23.197 32.132 43.734 0 25.302-20.511 45.813-45.813 45.813-25.302 0-45.813-20.511-45.813-45.813 0-20.613 13.613-38.047 32.34-43.801 2.469-.758 4.301-2.951 4.301-5.534 0-2.777-2.1-5.09-4.843-5.521-33.213-5.215-60.931-26.982-74.447-56.595-1.381-3.025-4.791-4.647-7.943-3.586-2.843.957-4.549 3.811-4.452 6.809.016.494.024.99.024 1.488 0 25.301-20.512 45.813-45.814 45.813-25.301 0-45.813-20.512-45.813-45.813 0-25.302 20.512-45.814 45.813-45.814 14.247 0 26.973 6.504 35.376 16.704 2.248 2.729 5.886 4.098 9.238 2.97 3.582-1.206 5.71-4.85 5.297-8.607a99.832 99.832 0 0 1-.598-10.927c0-27.642 11.355-52.632 29.656-70.559 2.453-2.402 2.918-6.244.906-9.026-1.946-2.692-5.573-3.49-8.626-2.181-7.884 3.379-16.567 5.251-25.688 5.251-36.041 0-65.259-29.217-65.259-65.259 0-36.041 29.217-65.258 65.259-65.258ZM60.873 156.093c25.506 0 46.184 20.677 46.184 46.183 0 25.507-20.678 46.184-46.184 46.184-25.506 0-46.183-20.677-46.183-46.184 0-25.506 20.677-46.183 46.183-46.183ZM239.794 15.006c21.362 0 38.679 17.317 38.68 38.68 0 21.362-17.318 38.68-38.68 38.68s-38.68-17.318-38.68-38.68 17.318-38.68 38.68-38.68Z" opacity=".36"/><circle cx="245.343" cy="257.761" r="86.554" fill="#E4E0E0"/><path fill="#E50914" d="M287.897 224.035v38.96h-11.632c-.388 0-.582 0-.582-.582v-37.797c0-.969-.581-1.55-1.551-1.55h-11.826c-.581 0-.775.193-1.163.581a38584.28 38584.28 0 0 0-6.398 6.397l-32.57 32.563c-.582.582-.776 1.163-.776 1.938v12.212c0 .581.194.775.776.775h39.937v12.599c0 .582 0 .582.582.582 4.071 0 8.336-.194 12.408-.194.581 0 .581 0 .581-.582 0-3.876 0-7.753-.194-11.63 0-.581 0-.775.776-.775h11.826v13.956c0 .388-.194.969-.194 1.357-.775 4.652-5.04 8.141-9.693 8.141h-65.529c-.969 0-2.133-.194-3.102-.582-4.071-1.357-6.785-5.233-6.785-9.691v-17.251c-.194-16.282-.194-32.37-.194-48.652v-1.357c.581-4.264 3.683-7.559 7.755-8.528.581-.194 1.163-.194 1.744-.388v37.603c0 .388.194.776.582 1.163 2.133 1.939 4.071 4.071 6.204 6.203.582.581.582.581 1.163 0 7.367-7.366 14.734-14.731 22.295-22.097 4.653-4.652 9.112-9.304 13.765-13.956.194-.194.194-.387.388-.581h-11.826c-.388 0-.776.194-.969.387-1.358.776-2.327 1.939-3.296 2.908l-18.612 18.608-.388.387c0-.581-.194-.969-.194-1.356v-15.701c0-3.489 0-6.784-.193-10.273v-2.907c.193-.194.193-.388.581-.388h55.835c.582 0 1.163 0 1.745.194 4.071.581 7.367 3.489 8.336 7.366.194.581.194 1.356.388 1.938Z"/><path fill="#E50914" d="M262.112 262.995h-20.938c.194-.582 19.969-20.353 21.132-20.934-.194 6.978-.194 13.956-.194 20.934Z"/><circle cx="411.052" cy="273.771" r="45.919" fill="#E4E0E0" fill-opacity=".06"/><circle cx="412.955" cy="171.787" r="30.859" fill="#E4E0E0" fill-opacity=".06"/><circle cx="321.186" cy="111.444" r="43.858" fill="#E4E0E0" fill-opacity=".06"/><circle cx="142.831" cy="115.988" r="56.593" fill="#E4E0E0" fill-opacity=".06"/><circle cx="97.271" cy="303.435" r="34.347" fill="#E4E0E0" fill-opacity=".06"/><path fill="#4D6BFE" d="M120.945 288.087c-.53-.259-.759.236-1.068.489-.107.081-.196.188-.286.284-.777.829-1.682 1.372-2.866 1.307-1.73-.096-3.208.447-4.514 1.771-.278-1.633-1.201-2.606-2.603-3.233-.735-.326-1.478-.649-1.993-1.357-.359-.504-.458-1.066-.637-1.617-.115-.334-.23-.675-.612-.731-.417-.065-.58.284-.743.576-.653 1.195-.905 2.511-.88 3.843.056 2.999 1.321 5.389 3.836 7.087.286.194.359.39.269.674-.171.585-.376 1.153-.555 1.74-.115.374-.286.453-.687.292a11.532 11.532 0 0 1-3.623-2.464c-1.789-1.729-3.404-3.638-5.42-5.134a23.81 23.81 0 0 0-1.439-.983c-2.056-1.999.272-3.641.81-3.835.564-.205.194-.902-1.626-.894-1.82.009-3.485.616-5.608 1.429-.316.121-.64.216-.97.286a20.01 20.01 0 0 0-6.018-.213c-3.934.438-7.076 2.301-9.386 5.478-2.776 3.818-3.43 8.158-2.63 12.681.841 4.771 3.275 8.72 7.013 11.807 3.878 3.201 8.343 4.77 13.437 4.469 3.094-.177 6.54-.593 10.424-3.885.981.489 2.008.683 3.715.83 1.315.123 2.58-.063 3.559-.268 1.534-.326 1.427-1.748.874-2.007-4.498-2.097-3.51-1.242-4.41-1.934 2.288-2.706 5.731-5.518 7.08-14.626.104-.724.014-1.18 0-1.764-.009-.355.073-.495.48-.535a8.696 8.696 0 0 0 3.224-.992c2.914-1.593 4.091-4.208 4.369-7.345.042-.481-.008-.973-.516-1.226Zm-25.394 28.232c-4.36-3.429-6.475-4.559-7.347-4.511-.819.05-.67.984-.49 1.594.187.601.431 1.015.773 1.543.239.349.401.869-.235 1.259-1.405.869-3.845-.292-3.96-.349-2.84-1.674-5.218-3.884-6.89-6.906-1.615-2.909-2.554-6.03-2.709-9.361-.041-.806.194-1.09.996-1.236a9.796 9.796 0 0 1 3.191-.082c4.45.652 8.236 2.642 11.413 5.794 1.812 1.796 3.183 3.941 4.596 6.038 1.503 2.226 3.118 4.348 5.176 6.086.727.609 1.305 1.073 1.86 1.413-1.674.188-4.467.23-6.374-1.282Zm2.087-13.45a.638.638 0 0 1 .866-.599.628.628 0 0 1 .417.601.636.636 0 0 1-.647.641.624.624 0 0 1-.452-.188.633.633 0 0 1-.184-.455Zm6.491 3.333c-.418.17-.833.316-1.232.335a2.597 2.597 0 0 1-1.665-.531c-.572-.48-.981-.748-1.152-1.583a3.618 3.618 0 0 1 .033-1.228c.146-.683-.017-1.121-.499-1.518-.39-.326-.889-.416-1.436-.416a1.17 1.17 0 0 1-.53-.163c-.23-.113-.417-.397-.238-.748.059-.112.334-.388.401-.438.743-.422 1.6-.284 2.392.033.735.301 1.29.852 2.089 1.634.816.941.964 1.203 1.43 1.908.367.554.701 1.122.929 1.771.14.408-.04.74-.522.944Z"/><circle cx="60.874" cy="202.276" r="36.144" fill="#E4E0E0" fill-opacity=".06"/><path fill="#fff" fill-rule="evenodd" d="M52.65 180.475a1.792 1.792 0 0 1 .662-1.886 1.769 1.769 0 0 1 1.335-.334 1.773 1.773 0 0 1 1.177.715c.14.191.24.407.294.637.12.489.252.971.382 1.452l.01.031c.301 1.107.6 2.215.794 3.382a1.793 1.793 0 0 1-.82 1.81 1.798 1.798 0 0 1-1.985-.065 1.787 1.787 0 0 1-.722-1.162c-.162-.988-.388-1.813-.66-2.814v-.003c-.144-.524-.3-1.095-.467-1.763Zm-8.358 3.037a1.789 1.789 0 0 0 .818 2.391c1.273.625 2.377 1.242 3.471 2.474a1.79 1.79 0 0 0 2.496.12 1.787 1.787 0 0 0 .177-2.493c-1.558-1.757-3.162-2.618-4.57-3.31a1.79 1.79 0 0 0-2.392.818Zm22.918 35.401c-.325-.069-.68-.144-1.043-.224-1.337-.29-3.15-.697-4.004-.98l-.063-.021-.061-.023c-.378-.141-1.02-.298-2.081-.54l-.197-.044c-.917-.21-2.043-.466-3.113-.789-1.103-.336-2.47-.835-3.634-1.646-1.218-.852-2.604-2.354-2.68-4.607a9.613 9.613 0 0 1 .017-.975 5.187 5.187 0 0 1-1.241-2.368 5.028 5.028 0 0 1 .057-2.435 7.561 7.561 0 0 1 .603-1.529c.07-.133.14-.267.21-.393a24.72 24.72 0 0 1-2.163-.787c-.96-.411-2.326-1.089-3.346-2.179a5.349 5.349 0 0 1-1.355-2.535 4.872 4.872 0 0 1 .431-3.209c1.154-2.307 3.355-3.123 5.313-3.194 1.768-.063 3.65.432 5.337 1.024 1.535.539 3.733 1.542 5.6 2.415a26.924 26.924 0 0 1 2.194-3.072l.153-.181.175-.161a6.553 6.553 0 0 1 3.934-1.694c.678-.05 1.36.001 2.022.153l.069.015.044.013h.006l.003.002s.004 0-.91 3.412l.914-3.412.397.111.363.195c1.841.986 2.364 2.686 2.502 3.583.085.573.08 1.154-.016 1.725l-.005.034v.01l-3.548-.707 3.546.709-.02.103-.572 2.273c-.11.558-.124.877-.119 1.045a.544.544 0 0 0 .031.204c.025.058.082.184.294.505.082.126.168.25.275.408l.11.161c.154.225.333.491.524.787 1.19 1.852 1.306 3.633 1.298 4.773v.05l.455.149.197.061.292.093c.145.046.33.107.51.172.21-.386.777-1.215 1.804-1.215 1.34 0 1.89 1.886 1.89 1.886.526 3.51-1.87 15.305-5.335 17.504-2.646 1.68-4.607-.816-6.064-4.655Zm-13.275-16.075c.225-.228.897-.707 2.17-.85a8.273 8.273 0 0 1 4.254.697c1.19.527 2.01 1.734 2.354 3.184.168.708.198 1.396.126 1.958-.076.592-.245.888-.323.976-.095.11-.435.3-1.377.101a6.552 6.552 0 0 1-1.458-.508l-.012-.006a1.79 1.79 0 0 0-1.644 3.175l.069.034a10.048 10.048 0 0 0 2.303.8c1.174.249 3.341.44 4.812-1.245.706-.81 1.046-1.872 1.174-2.867a9.15 9.15 0 0 0-.191-3.241c-.512-2.155-1.864-4.512-4.386-5.631a11.84 11.84 0 0 0-6.101-.98c-1.182.134-2.312.462-3.227.963l-.038-.012h-.008c-2.259-.646-6.752-1.929-5.644-4.145.84-1.681 3.137-1.541 6.253-.447 1.266.443 3.025 1.236 4.684 2.008.516.238 1.02.477 1.497.701l1.86.867c1.323-1.589 1.837-2.464 2.292-3.238.31-.531.595-1.012 1.094-1.646l.047-.061c.092-.116.185-.231.28-.344l.037-.033c1.226-1.083 2.653-.687 2.653-.687.815.435.609 1.539.609 1.539l-.567 2.25c-.543 2.648.057 3.524 1.044 4.967.172.254.36.525.554.827.787 1.228.749 2.406.72 3.371-.02.619-.037 1.15.172 1.545.427.812 2.024 1.318 3.074 1.647.252.08.472.149.636.21l.112.044c-.148.458-.282.934-.416 1.407-.597 2.107-1.19 4.206-2.96 4.833-1.206.43-2.411.409-3.265.298-1.5-.325-3.276-.724-3.945-.946-.693-.257-1.663-.477-2.719-.72-2.513-.573-5.505-1.253-6.36-2.792a1.862 1.862 0 0 1-.24-.854c-.049-1.414.448-2.682.448-2.682s-.77.004-1.308-.516a1.627 1.627 0 0 1-.455-.823 2.555 2.555 0 0 1-.047-.84c.015 0 .022-.015.022-.054 0-.447.447-1.341 1.34-2.234Zm10.227-23.427a1.79 1.79 0 0 1 .601 2.455c-.678 1.115-1.07 2.255-1.5 3.974a1.79 1.79 0 0 1-2.172 1.32 1.776 1.776 0 0 1-1.337-1.486 1.79 1.79 0 0 1 .04-.701c.465-1.854.963-3.396 1.914-4.962a1.79 1.79 0 0 1 2.454-.6Z" clip-rule="evenodd"/><circle cx="239.795" cy="53.687" r="31.705" fill="#E4E0E0" fill-opacity=".06"/><path fill="#20808D" d="M240.333 34.98v10.953l10.723-10.738v11.51h4.59v16.424h-4.59v11.573l-10.723-10.738v11.599h-1.126v-11.55l-10.674 10.69V63.128h-4.592V46.704h4.591v-11.51l10.675 10.69V34.98h1.126Zm-10.674 23.235v13.764l9.548-9.56V48.654l-9.548 9.56Zm10.699 4.179 9.571 9.585v-8.85h-.001l.001-4.914-9.571-9.585v13.764ZM225.068 62h3.464l.001-4.253 9.899-9.914h-9.9v-.003h-3.464V62Zm16.088-15.297h8.773v-8.786l-8.773 8.786Zm-11.498 0h8.774l-8.774-8.786v8.786ZM251.056 62h3.464V47.83h-3.464v.003h-9.9l9.9 9.914V62Z"/><circle cx="243.916" cy="410.174" r="37.729" fill="#E4E0E0" fill-opacity=".06"/><circle cx="364.553" cy="365.24" r="28.851" fill="#E4E0E0" fill-opacity=".06"/><path fill="#fff" d="M175.538 109.457a19.026 19.026 0 0 0-1.634-15.624 19.238 19.238 0 0 0-20.725-9.23 19.021 19.021 0 0 0-14.347-6.398 19.236 19.236 0 0 0-18.355 13.319 19.03 19.03 0 0 0-12.724 9.228 19.248 19.248 0 0 0 2.367 22.559 19.025 19.025 0 0 0 1.635 15.626 19.244 19.244 0 0 0 20.724 9.228 19.032 19.032 0 0 0 14.351 6.395 19.234 19.234 0 0 0 18.361-13.326 19.01 19.01 0 0 0 7.356-3.24 19.024 19.024 0 0 0 5.365-5.986 19.24 19.24 0 0 0-2.374-22.551Zm-28.704 40.118a14.27 14.27 0 0 1-9.161-3.312c.117-.063.32-.174.452-.256l15.205-8.78a2.477 2.477 0 0 0 1.251-2.166v-21.436l6.425 3.711a.227.227 0 0 1 .128.175v17.752a14.328 14.328 0 0 1-14.302 14.31l.002.002Zm-30.748-13.134a14.262 14.262 0 0 1-1.709-9.59c.115.069.311.191.454.271l15.205 8.781a2.48 2.48 0 0 0 2.496 0l18.565-10.717v7.422a.229.229 0 0 1-.019.11.231.231 0 0 1-.071.087l-15.372 8.875a14.33 14.33 0 0 1-19.549-5.239Zm-4.001-33.189a14.263 14.263 0 0 1 7.451-6.275c0 .13-.006.361-.006.522v17.565a2.472 2.472 0 0 0 1.247 2.162l18.563 10.717-6.425 3.711a.225.225 0 0 1-.218.018l-15.374-8.879a14.325 14.325 0 0 1-5.238-19.541Zm52.806 12.288-18.566-10.719 6.428-3.709a.234.234 0 0 1 .106-.038.232.232 0 0 1 .11.018l15.374 8.873a14.309 14.309 0 0 1 7.101 13.615 14.311 14.311 0 0 1-9.312 12.209v-18.088a2.472 2.472 0 0 0-1.241-2.161Zm6.396-9.627a13.981 13.981 0 0 0-.452-.269l-15.205-8.781a2.482 2.482 0 0 0-2.498 0l-18.564 10.717v-7.423a.23.23 0 0 1 .093-.196l15.368-8.867a14.315 14.315 0 0 1 20.358 6.876 14.31 14.31 0 0 1 .9 7.943Zm-40.214 13.228-6.429-3.711a.23.23 0 0 1-.085-.073.244.244 0 0 1-.039-.104V97.501a14.308 14.308 0 0 1 8.244-12.95 14.313 14.313 0 0 1 15.227 1.962c-.152.082-.304.167-.452.255l-15.207 8.783a2.46 2.46 0 0 0-1.247 2.16l-.012 21.43Zm3.491-7.528 8.268-4.774 8.269 4.772v9.544l-8.267 4.774-8.27-4.774v-9.542Z"/><path fill="#D97757" d="m394.86 282.549 10.467-5.875.175-.512-.175-.283h-.512l-1.751-.107-5.981-.162-5.187-.216-5.024-.269-1.267-.27-1.185-1.563.121-.781 1.064-.714 1.523.134 3.367.23 5.052.35 3.664.215 5.429.566h.862l.122-.35-.297-.216-.229-.215-5.227-3.544-5.658-3.746-2.963-2.156-1.603-1.091-.809-1.024-.35-2.237 1.455-1.603 1.953.134.499.135 1.98 1.523 4.23 3.274 5.523 4.069.809.674.323-.229.04-.162-.363-.606-3.005-5.43-3.206-5.525-1.428-2.29-.377-1.375c-.135-.566-.229-1.037-.229-1.617l1.657-2.25.916-.296 2.209.296.93.809 1.374 3.139 2.223 4.945 3.448 6.724 1.011 1.994.539 1.846.202.566h.35v-.323l.283-3.787.525-4.648.512-5.983.175-1.684.835-2.021 1.657-1.092 1.294.62 1.064 1.523-.148.983-.633 4.11-1.24 6.441-.808 4.311h.471l.539-.539 2.183-2.897 3.664-4.581 1.616-1.819 1.886-2.008 1.213-.956h2.29l1.684 2.506-.755 2.587-2.357 2.991-1.953 2.534-2.803 3.772-1.751 3.019.162.242.418-.04 6.331-1.348 3.422-.619 4.081-.701 1.846.862.202.876-.727 1.792-4.365 1.078-5.119 1.024-7.625 1.806-.094.067.108.135 3.435.323 1.468.081h3.597l6.695.499 1.751 1.158 1.051 1.415-.175 1.078-2.694 1.375-3.637-.863-8.487-2.021-2.91-.728h-.404v.243l2.425 2.371 4.445 4.016 5.564 5.174.283 1.28-.714 1.011-.755-.108-4.89-3.679-1.886-1.657-4.27-3.598h-.283v.378l.983 1.441 5.2 7.815.27 2.399-.378.781-1.347.472-1.481-.27-3.045-4.271-3.139-4.81-2.532-4.312-.31.175-1.495 16.102-.701.822-1.617.62-1.347-1.024-.714-1.658.714-3.274.863-4.271.7-3.396.633-4.217.377-1.402-.027-.094-.309.04-3.18 4.366-4.836 6.535-3.826 4.096-.916.364-1.589-.822.148-1.468.889-1.307 5.294-6.738 3.193-4.177 2.061-2.412-.013-.35h-.122l-14.064 9.136-2.505.323-1.078-1.01.135-1.658.512-.539 4.23-2.91-.014.013Z"/><path fill="#fff" d="m238.681 416.471 15.371-11.36c.754-.557 1.831-.339 2.19.526 1.89 4.562 1.046 10.044-2.715 13.809-3.759 3.764-8.991 4.59-13.773 2.709l-5.224 2.422c7.493 5.127 16.591 3.859 22.276-1.837 4.51-4.515 5.907-10.669 4.601-16.218l.011.011c-1.893-8.152.466-11.411 5.299-18.075.115-.158.229-.316.343-.478l-6.36 6.368v-.02l-22.023 22.147m-3.168 2.759c-5.377-5.143-4.45-13.102.138-17.692 3.393-3.397 8.953-4.784 13.805-2.745l5.212-2.41c-.939-.679-2.142-1.41-3.523-1.923a17.29 17.29 0 0 0-18.788 3.784c-4.881 4.886-6.415 12.398-3.78 18.809 1.969 4.792-1.259 8.181-4.51 11.601-1.152 1.213-2.308 2.425-3.239 3.709l14.681-13.129"/><path fill="#4284F4" d="M426.524 172.101a16.344 16.344 0 0 0-.316-2.842h-12.965v5.368h7.274a6.226 6.226 0 0 1-2.621 4.204v3.498h4.505a13.614 13.614 0 0 0 4.127-10.227l-.004-.001Z"/><path fill="#34A853" d="M413.202 185.68a13.27 13.27 0 0 0 9.194-3.354l-4.501-3.498a8.365 8.365 0 0 1-7.309.85 8.364 8.364 0 0 1-5.151-5.248h-4.629v3.603a13.848 13.848 0 0 0 5.111 5.58 13.884 13.884 0 0 0 7.285 2.067Z"/><path fill="#FBBC04" d="M405.435 174.427a8.325 8.325 0 0 1 0-5.285v-3.602H400.8a13.906 13.906 0 0 0 0 12.478l4.629-3.603.006.012Z"/><path fill="#EA4335" d="M413.202 163.418a7.507 7.507 0 0 1 5.307 2.078l3.977-3.983a13.312 13.312 0 0 0-9.283-3.621 13.877 13.877 0 0 0-12.396 7.655l4.629 3.602a8.262 8.262 0 0 1 2.959-4.114 8.28 8.28 0 0 1 4.807-1.617Z"/><path fill="#007FF8" d="M373.44 351.66c-3.352 0-5.973 2.523-8.347 5.731-3.258-4.151-5.983-5.731-9.246-5.731-6.649 0-11.743 8.654-11.743 17.83 0 5.731 2.769 9.35 7.404 9.35 3.347 0 5.751-1.58 10.026-9.049l3.006-5.316c.429.696.879 1.441 1.357 2.241l2.005 3.371c3.904 6.536 6.081 8.753 10.02 8.753 4.527 0 7.044-3.668 7.044-9.518.01-9.606-5.198-17.662-11.526-17.662Zm-15.159 16.093c-3.456 5.43-4.665 6.649-6.59 6.649-1.926 0-3.169-1.743-3.169-4.853 0-6.649 3.317-13.451 7.271-13.451 2.137 0 3.949 1.239 6.669 5.158-2.602 3.994-4.181 6.497-4.181 6.497Zm13.081-.687-2.394-3.993a145.995 145.995 0 0 0-1.871-2.913c2.157-3.332 3.949-4.995 6.062-4.995 4.398 0 7.898 6.486 7.898 14.444 0 3.035-.987 4.798-3.056 4.798-1.95.019-2.892-1.308-6.639-7.341Z"/><path fill="url(#a)" d="M345.811 111.494a26.233 26.233 0 0 0-24.575 24.574h-.099a26.226 26.226 0 0 0-24.575-24.574v-.099a26.221 26.221 0 0 0 16.942-7.633 26.222 26.222 0 0 0 7.633-16.942h.099a26.234 26.234 0 0 0 7.633 16.942 26.234 26.234 0 0 0 16.942 7.633v.099Z"/><defs><radialGradient id="a" cx="0" cy="0" r="1" gradientTransform="matrix(49.65633 16.79132 -134.50898 397.77826 301.447 106.835)" gradientUnits="userSpaceOnUse"><stop offset=".067" stop-color="#9168C0"/><stop offset=".343" stop-color="#5684D1"/><stop offset=".672" stop-color="#1BA1E3"/></radialGradient></defs></svg>