<svg xmlns="http://www.w3.org/2000/svg" xmlns:xlink="http://www.w3.org/1999/xlink" viewBox="0 0 117.33 82.98"><path d="M 77.261 29.999 C 77.23 28.654 77.081 27.315 76.816 25.996 L 58.581 25.996 L 58.581 33.557 L 68.812 33.557 C 68.635 34.744 68.216 35.881 67.582 36.9 C 66.948 37.918 66.112 38.795 65.125 39.478 L 65.125 44.405 L 71.462 44.405 C 73.381 42.542 74.889 40.298 75.888 37.817 C 76.888 35.336 77.357 32.673 77.266 30 Z" fill="rgb(66,132,244)"></path><path d="M 58.524 49.126 C 63.279 49.259 67.905 47.569 71.455 44.402 L 65.124 39.475 C 63.615 40.445 61.904 41.058 60.122 41.265 C 58.34 41.472 56.535 41.27 54.844 40.672 C 53.152 40.074 51.62 39.097 50.364 37.816 C 49.109 36.535 48.163 34.984 47.599 33.281 L 41.089 33.281 L 41.089 38.355 C 42.709 41.591 45.199 44.313 48.278 46.215 C 51.357 48.117 54.904 49.125 58.524 49.126 Z" fill="rgb(52,168,83)"></path><path d="M 47.599 33.276 C 46.792 30.86 46.792 28.248 47.599 25.833 L 47.599 20.758 L 41.081 20.758 C 39.714 23.486 39.002 26.495 39.002 29.546 C 39.002 32.597 39.714 35.606 41.081 38.334 L 47.591 33.259 Z" fill="rgb(251,188,4)"></path><path d="M 58.524 17.769 C 61.3 17.725 63.982 18.777 65.988 20.696 L 71.581 15.086 C 68.054 11.759 63.374 9.93 58.525 9.986 C 54.905 9.988 51.356 10.997 48.277 12.902 C 45.198 14.806 42.71 17.53 41.091 20.768 L 47.601 25.843 C 48.347 23.523 49.803 21.496 51.763 20.048 C 53.722 18.599 56.087 17.802 58.524 17.769 Z" fill="rgb(234,67,53)"></path><path d="M 19.107 70.139 C 18.241 70.144 17.39 69.917 16.64 69.484 C 15.896 69.059 15.277 68.444 14.848 67.701 C 14.413 66.933 14.184 66.065 14.184 65.182 C 14.184 64.299 14.413 63.431 14.848 62.663 C 15.277 61.916 15.898 61.296 16.646 60.867 C 17.393 60.438 18.242 60.216 19.104 60.222 C 19.776 60.218 20.443 60.344 21.068 60.592 C 21.652 60.819 22.174 61.179 22.594 61.645 L 22.664 61.725 L 21.708 62.681 L 21.629 62.583 C 21.34 62.23 20.968 61.953 20.546 61.779 C 20.092 61.59 19.605 61.494 19.114 61.498 C 18.491 61.494 17.878 61.652 17.334 61.956 C 16.787 62.261 16.331 62.707 16.015 63.248 C 15.69 63.839 15.519 64.504 15.519 65.18 C 15.519 65.855 15.69 66.52 16.015 67.112 C 16.332 67.654 16.79 68.101 17.339 68.405 C 17.841 68.673 18.395 68.828 18.963 68.858 C 19.531 68.889 20.098 68.795 20.626 68.582 C 21.019 68.402 21.374 68.148 21.672 67.836 C 21.896 67.59 22.073 67.305 22.194 66.996 C 22.318 66.681 22.398 66.35 22.433 66.014 L 19.019 66.014 L 19.019 64.763 L 23.684 64.763 L 23.702 64.856 C 23.744 65.086 23.767 65.318 23.769 65.551 C 23.769 66.129 23.675 66.703 23.491 67.252 C 23.307 67.801 23.002 68.301 22.597 68.715 C 22.151 69.188 21.608 69.56 21.006 69.805 C 20.404 70.051 19.757 70.165 19.107 70.139 Z" fill="rgb(255, 255, 255)"></path><path d="M 16.696 69.391 C 15.967 68.973 15.363 68.369 14.946 67.641 C 14.521 66.89 14.298 66.042 14.298 65.179 C 14.298 64.316 14.521 63.468 14.946 62.717 C 15.366 61.988 15.972 61.383 16.702 60.964 C 17.432 60.546 18.26 60.328 19.102 60.334 C 19.761 60.329 20.414 60.451 21.025 60.696 C 21.593 60.916 22.101 61.266 22.508 61.719 L 21.718 62.509 C 21.417 62.141 21.029 61.854 20.59 61.673 C 20.124 61.478 19.622 61.378 19.117 61.381 C 18.475 61.377 17.842 61.54 17.282 61.853 C 16.717 62.167 16.247 62.628 15.921 63.187 C 15.586 63.796 15.409 64.481 15.409 65.177 C 15.409 65.873 15.586 66.557 15.921 67.166 C 16.248 67.727 16.72 68.188 17.288 68.5 C 17.805 68.777 18.377 68.937 18.962 68.969 C 19.548 69 20.133 68.902 20.677 68.682 C 21.083 68.496 21.45 68.235 21.759 67.911 C 21.991 67.654 22.175 67.358 22.302 67.035 C 22.446 66.673 22.533 66.29 22.561 65.901 L 19.123 65.901 L 19.123 64.876 L 23.581 64.876 C 23.622 65.099 23.644 65.325 23.646 65.551 C 23.647 66.117 23.554 66.679 23.373 67.216 C 23.195 67.749 22.899 68.235 22.505 68.636 C 22.07 69.098 21.54 69.461 20.952 69.7 C 20.364 69.939 19.731 70.048 19.097 70.021 C 18.255 70.028 17.426 69.81 16.696 69.391 Z" fill="rgb(255, 255, 255)"></path><path d="M 26.381 69.558 C 25.869 69.254 25.45 68.814 25.17 68.287 C 24.885 67.739 24.736 67.131 24.736 66.512 C 24.736 65.894 24.885 65.285 25.17 64.737 C 25.45 64.211 25.869 63.771 26.381 63.467 C 26.914 63.161 27.517 63.001 28.13 63.001 C 28.744 63.001 29.347 63.161 29.879 63.467 C 30.392 63.772 30.811 64.211 31.091 64.737 C 31.376 65.285 31.525 65.894 31.525 66.512 C 31.525 67.131 31.376 67.739 31.091 68.287 C 30.811 68.814 30.392 69.254 29.879 69.558 C 29.347 69.863 28.744 70.024 28.13 70.024 C 27.517 70.024 26.914 69.863 26.381 69.558 Z M 29.266 68.723 C 29.621 68.514 29.912 68.212 30.107 67.849 C 30.315 67.435 30.424 66.978 30.424 66.514 C 30.424 66.05 30.315 65.593 30.107 65.179 C 29.912 64.816 29.621 64.514 29.266 64.305 C 28.921 64.104 28.53 64 28.131 64.002 C 27.724 64 27.324 64.108 26.974 64.316 C 26.623 64.523 26.336 64.823 26.142 65.181 C 25.933 65.595 25.824 66.052 25.824 66.516 C 25.824 66.979 25.933 67.437 26.142 67.85 C 26.338 68.215 26.632 68.518 26.99 68.725 C 27.338 68.926 27.734 69.032 28.136 69.029 C 28.533 69.03 28.923 68.924 29.266 68.723 Z" fill="rgb(255, 255, 255)"></path><path d="M 34.098 69.558 C 33.585 69.254 33.166 68.814 32.886 68.287 C 32.601 67.739 32.452 67.131 32.452 66.512 C 32.452 65.894 32.601 65.285 32.886 64.737 C 33.167 64.211 33.585 63.772 34.098 63.467 C 34.63 63.161 35.233 63 35.847 63 C 36.46 63 37.063 63.161 37.596 63.467 C 38.108 63.771 38.527 64.211 38.807 64.737 C 39.092 65.285 39.241 65.894 39.241 66.512 C 39.241 67.131 39.092 67.739 38.807 68.287 C 38.528 68.814 38.109 69.254 37.596 69.558 C 37.063 69.863 36.46 70.024 35.847 70.024 C 35.233 70.024 34.63 69.863 34.098 69.558 Z M 36.982 68.723 C 37.338 68.514 37.629 68.212 37.825 67.849 C 38.033 67.435 38.142 66.978 38.142 66.514 C 38.142 66.05 38.033 65.593 37.825 65.179 C 37.629 64.816 37.337 64.514 36.982 64.305 C 36.638 64.104 36.246 64 35.847 64.002 C 35.445 63.999 35.05 64.104 34.702 64.305 C 34.343 64.512 34.049 64.815 33.852 65.179 C 33.643 65.593 33.534 66.05 33.534 66.514 C 33.534 66.978 33.643 67.435 33.852 67.849 C 34.048 68.213 34.343 68.516 34.702 68.723 C 35.05 68.925 35.445 69.03 35.847 69.027 C 36.244 69.028 36.633 68.923 36.975 68.723 Z" fill="rgb(255, 255, 255)"></path><path d="M 41.485 72.28 C 41.015 71.963 40.658 71.504 40.467 70.97 L 41.466 70.543 C 41.61 70.919 41.866 71.242 42.199 71.47 C 42.556 71.712 42.979 71.836 43.41 71.826 C 43.7 71.844 43.99 71.803 44.263 71.705 C 44.536 71.606 44.786 71.454 44.998 71.255 C 45.196 71.034 45.348 70.775 45.445 70.493 C 45.542 70.212 45.581 69.915 45.561 69.618 L 45.561 68.88 L 45.509 68.88 C 45.279 69.227 44.965 69.508 44.595 69.699 C 44.182 69.915 43.721 70.024 43.255 70.016 C 42.702 70.021 42.16 69.867 41.693 69.571 C 41.213 69.265 40.826 68.834 40.572 68.325 C 40.299 67.758 40.157 67.137 40.157 66.507 C 40.157 65.878 40.299 65.256 40.572 64.689 C 40.824 64.178 41.212 63.745 41.693 63.437 C 42.16 63.141 42.702 62.987 43.255 62.992 C 43.721 62.984 44.182 63.093 44.595 63.309 C 44.968 63.502 45.283 63.79 45.509 64.144 L 45.559 64.144 L 45.559 63.198 L 46.609 63.198 L 46.609 69.548 C 46.64 69.994 46.578 70.442 46.425 70.862 C 46.273 71.283 46.033 71.666 45.723 71.989 C 45.135 72.474 44.409 72.764 43.648 72.816 C 42.886 72.869 42.128 72.681 41.479 72.28 Z M 44.49 68.731 C 44.825 68.519 45.094 68.218 45.268 67.862 C 45.472 67.444 45.572 66.984 45.559 66.52 C 45.572 66.051 45.472 65.586 45.268 65.164 C 45.095 64.81 44.825 64.512 44.49 64.303 C 44.162 64.107 43.787 64.004 43.405 64.004 C 43.023 64.004 42.648 64.107 42.32 64.303 C 41.983 64.514 41.712 64.815 41.536 65.171 C 41.333 65.588 41.233 66.049 41.244 66.513 C 41.233 66.979 41.333 67.442 41.536 67.862 C 41.704 68.215 41.97 68.512 42.302 68.718 C 42.633 68.925 43.018 69.032 43.408 69.026 C 43.79 69.033 44.165 68.931 44.49 68.731 Z" fill="rgb(255, 255, 255)"></path><path d="M 48.229 60.54 L 49.331 60.54 L 49.331 69.818 L 48.229 69.818 Z" fill="rgb(255, 255, 255)"></path><path d="M 52.205 69.573 C 51.707 69.272 51.301 68.839 51.033 68.322 C 50.746 67.766 50.601 67.147 50.612 66.521 C 50.606 65.911 50.741 65.308 51.007 64.759 C 51.258 64.238 51.645 63.795 52.128 63.477 C 52.629 63.152 53.216 62.985 53.813 62.997 C 54.403 62.982 54.986 63.132 55.497 63.431 C 55.969 63.717 56.349 64.133 56.592 64.629 C 56.855 65.174 56.986 65.773 56.975 66.377 C 56.976 66.49 56.963 66.603 56.936 66.713 L 51.714 66.713 C 51.724 67.16 51.849 67.598 52.076 67.983 C 52.273 68.312 52.556 68.581 52.894 68.76 C 53.215 68.931 53.574 69.019 53.937 69.019 C 54.344 69.027 54.744 68.919 55.092 68.708 C 55.439 68.497 55.72 68.192 55.901 67.828 L 56.834 68.281 C 56.567 68.799 56.167 69.237 55.676 69.551 C 55.149 69.854 54.551 70.016 53.944 70.018 C 53.335 70.02 52.737 69.864 52.208 69.564 Z M 55.806 65.808 C 55.785 65.518 55.705 65.236 55.572 64.978 C 55.422 64.689 55.196 64.447 54.918 64.279 C 54.579 64.078 54.189 63.979 53.796 63.994 C 53.313 63.982 52.843 64.158 52.487 64.485 C 52.119 64.836 51.872 65.294 51.781 65.794 Z" fill="rgb(255, 255, 255)"></path><path d="M 60.966 60.54 L 64.089 60.54 C 64.59 60.536 65.085 60.656 65.528 60.89 C 65.961 61.118 66.326 61.457 66.584 61.872 C 66.843 62.3 66.98 62.791 66.98 63.292 C 66.98 63.792 66.843 64.283 66.584 64.711 C 66.325 65.126 65.961 65.465 65.528 65.693 C 65.085 65.928 64.59 66.048 64.089 66.043 L 62.054 66.043 L 62.054 69.826 L 60.966 69.826 Z M 64.115 64.987 C 64.437 64.995 64.754 64.91 65.029 64.742 C 65.284 64.586 65.496 64.367 65.644 64.107 C 65.789 63.858 65.865 63.576 65.865 63.288 C 65.865 63.001 65.789 62.718 65.644 62.47 C 65.496 62.21 65.284 61.991 65.029 61.835 C 64.754 61.667 64.437 61.582 64.115 61.587 L 62.054 61.587 L 62.054 64.987 Z" fill="rgb(255, 255, 255)"></path><path d="M 69.195 69.741 C 68.833 69.567 68.527 69.296 68.312 68.957 C 68.104 68.616 67.996 68.222 68.003 67.823 C 67.99 67.506 68.055 67.191 68.193 66.905 C 68.331 66.619 68.537 66.373 68.794 66.186 C 69.376 65.775 70.077 65.568 70.789 65.596 C 71.163 65.594 71.535 65.637 71.897 65.726 C 72.171 65.787 72.436 65.887 72.681 66.024 L 72.681 65.621 C 72.69 65.397 72.647 65.174 72.557 64.968 C 72.467 64.763 72.333 64.58 72.162 64.434 C 71.796 64.129 71.33 63.969 70.853 63.987 C 70.497 63.984 70.145 64.066 69.828 64.228 C 69.526 64.379 69.27 64.609 69.09 64.894 L 68.26 64.272 C 68.525 63.87 68.894 63.547 69.329 63.339 C 69.799 63.111 70.316 62.995 70.838 63.002 C 71.609 62.958 72.366 63.21 72.956 63.707 C 73.216 63.954 73.419 64.253 73.552 64.585 C 73.685 64.917 73.745 65.274 73.727 65.631 L 73.727 69.816 L 72.678 69.816 L 72.678 68.872 L 72.625 68.872 C 72.415 69.212 72.121 69.494 71.771 69.69 C 71.382 69.916 70.938 70.033 70.488 70.026 C 70.041 70.033 69.598 69.936 69.195 69.741 Z M 71.63 68.769 C 71.946 68.583 72.209 68.32 72.395 68.004 C 72.584 67.687 72.683 67.324 72.679 66.955 C 72.443 66.804 72.186 66.691 71.915 66.618 C 71.603 66.531 71.28 66.487 70.956 66.488 C 70.471 66.453 69.989 66.586 69.591 66.865 C 69.444 66.98 69.325 67.127 69.246 67.296 C 69.165 67.465 69.126 67.65 69.131 67.836 C 69.126 68.005 69.161 68.172 69.233 68.325 C 69.305 68.478 69.412 68.612 69.545 68.717 C 69.844 68.949 70.215 69.068 70.594 69.054 C 70.959 69.055 71.317 68.957 71.63 68.769 Z" fill="rgb(255, 255, 255)"></path><path d="M 75.078 63.313 L 76.128 63.313 L 76.128 64.364 L 76.181 64.364 C 76.333 63.98 76.612 63.659 76.971 63.457 C 77.341 63.24 77.763 63.127 78.191 63.13 C 78.351 63.127 78.511 63.14 78.669 63.169 L 78.669 64.297 C 78.473 64.257 78.273 64.24 78.073 64.244 C 77.819 64.235 77.566 64.28 77.33 64.376 C 77.095 64.472 76.882 64.617 76.707 64.801 C 76.347 65.197 76.159 65.718 76.181 66.253 L 76.181 69.919 L 75.079 69.919 Z M 81.789 69.893 C 81.574 69.815 81.378 69.694 81.211 69.538 C 81.041 69.375 80.908 69.176 80.822 68.957 C 80.729 68.699 80.685 68.425 80.692 68.152 L 80.692 64.206 L 79.546 64.206 L 79.546 63.208 L 80.692 63.208 L 80.692 61.343 L 81.792 61.343 L 81.792 63.208 L 83.4 63.208 L 83.4 64.206 L 81.792 64.206 L 81.792 67.888 C 81.77 68.176 81.843 68.463 82 68.707 C 82.089 68.806 82.199 68.884 82.323 68.934 C 82.446 68.985 82.579 69.006 82.712 68.998 C 82.97 68.995 83.222 68.918 83.437 68.777 L 83.437 69.852 C 83.311 69.912 83.178 69.955 83.041 69.981 C 82.873 70.01 82.702 70.024 82.53 70.021 C 82.276 70.025 82.023 69.981 81.784 69.893 Z" fill="rgb(255, 255, 255)"></path><path d="M 84.649 63.208 L 85.7 63.208 L 85.7 64.182 L 85.751 64.182 C 85.957 63.829 86.257 63.54 86.618 63.346 C 87.003 63.12 87.442 63.002 87.888 63.002 C 88.223 62.98 88.56 63.03 88.874 63.15 C 89.188 63.27 89.473 63.456 89.709 63.696 C 90.15 64.222 90.374 64.896 90.337 65.582 L 90.337 69.818 L 89.236 69.818 L 89.236 65.749 C 89.257 65.508 89.23 65.265 89.154 65.036 C 89.078 64.806 88.956 64.595 88.795 64.414 C 88.463 64.124 88.031 63.976 87.59 64.001 C 87.249 63.996 86.915 64.101 86.637 64.298 C 86.355 64.499 86.129 64.769 85.983 65.083 C 85.828 65.4 85.748 65.748 85.748 66.1 L 85.748 69.818 L 84.649 69.818 Z" fill="rgb(255, 255, 255)"></path><path d="M 93.167 69.573 C 92.668 69.272 92.263 68.839 91.995 68.322 C 91.708 67.766 91.564 67.147 91.574 66.521 C 91.568 65.911 91.704 65.308 91.971 64.759 C 92.221 64.237 92.608 63.795 93.09 63.477 C 93.592 63.152 94.179 62.985 94.776 62.997 C 95.367 62.982 95.95 63.132 96.461 63.431 C 96.933 63.717 97.313 64.133 97.556 64.629 C 97.818 65.174 97.949 65.773 97.939 66.377 C 97.94 66.49 97.927 66.603 97.899 66.713 L 92.678 66.713 C 92.687 67.161 92.812 67.598 93.041 67.983 C 93.238 68.312 93.521 68.581 93.859 68.76 C 94.181 68.931 94.539 69.019 94.902 69.019 C 95.309 69.027 95.709 68.919 96.057 68.708 C 96.405 68.497 96.685 68.192 96.867 67.828 L 97.801 68.281 C 97.532 68.799 97.132 69.237 96.641 69.551 C 96.114 69.855 95.517 70.016 94.909 70.018 C 94.301 70.02 93.703 69.864 93.173 69.564 Z M 96.768 65.808 C 96.746 65.518 96.667 65.236 96.534 64.978 C 96.385 64.689 96.158 64.447 95.879 64.279 C 95.541 64.078 95.152 63.979 94.758 63.994 C 94.274 63.981 93.805 64.158 93.449 64.485 C 93.08 64.836 92.833 65.294 92.742 65.794 Z" fill="rgb(255, 255, 255)"></path><path d="M 99.206 63.208 L 100.257 63.208 L 100.257 64.271 L 100.309 64.271 C 100.452 63.893 100.716 63.574 101.06 63.364 C 101.405 63.131 101.811 63.005 102.227 63.002 C 102.494 62.995 102.76 63.044 103.006 63.144 L 103.006 64.325 C 102.716 64.184 102.395 64.112 102.072 64.117 C 101.757 64.116 101.45 64.211 101.191 64.39 C 100.918 64.577 100.697 64.83 100.549 65.125 C 100.389 65.431 100.307 65.772 100.309 66.117 L 100.309 69.82 L 99.207 69.82 Z" fill="rgb(255, 255, 255)"></path></svg>
