<svg xmlns="http://www.w3.org/2000/svg" xmlns:xlink="http://www.w3.org/1999/xlink" viewBox="0 0 149.04 62.36"><path d="M 60.045 8.231 L 64.304 8.231 L 71.545 21.327 L 78.782 8.231 L 82.95 8.231 L 82.95 29.766 L 79.473 29.766 L 79.473 13.255 L 73.125 24.677 L 69.875 24.677 L 63.518 13.255 L 63.518 29.766 L 60.045 29.766 Z" fill="rgb(255, 255, 255)"></path><path d="M 94.149 30.132 C 92.665 30.165 91.199 29.797 89.907 29.066 C 88.7 28.365 87.712 27.34 87.056 26.108 C 86.356 24.772 86.005 23.28 86.035 21.772 C 86.004 20.252 86.346 18.747 87.031 17.39 C 87.663 16.159 88.625 15.127 89.808 14.411 C 91.041 13.678 92.455 13.304 93.89 13.333 C 95.261 13.278 96.616 13.643 97.774 14.378 C 98.933 15.113 99.84 16.184 100.374 17.447 C 100.999 18.893 101.303 20.457 101.267 22.031 L 101.267 22.981 L 89.479 22.981 C 89.632 24.168 90.195 25.264 91.072 26.079 C 91.958 26.848 93.104 27.252 94.276 27.211 C 95.19 27.232 96.098 27.074 96.951 26.746 C 97.735 26.416 98.45 25.942 99.057 25.347 L 100.901 27.61 C 99.062 29.294 96.642 30.198 94.149 30.132 Z M 96.688 17.378 C 96.312 17.002 95.861 16.708 95.365 16.516 C 94.869 16.324 94.339 16.238 93.808 16.263 C 93.276 16.249 92.747 16.342 92.252 16.537 C 91.757 16.733 91.307 17.025 90.927 17.398 C 90.119 18.232 89.603 19.306 89.459 20.459 L 97.934 20.459 C 97.904 19.314 97.462 18.217 96.692 17.369 Z" fill="rgb(255, 255, 255)"></path><path d="M 105.484 16.563 L 102.283 16.563 L 102.283 13.72 L 105.484 13.72 L 105.484 9.013 L 108.833 9.013 L 108.833 13.72 L 113.688 13.72 L 113.688 16.567 L 108.833 16.567 L 108.833 23.772 C 108.833 24.967 109.038 25.823 109.446 26.339 C 109.855 26.855 110.557 27.11 111.553 27.104 C 111.928 27.108 112.303 27.09 112.676 27.051 C 112.985 27.018 113.322 26.968 113.688 26.907 L 113.688 29.717 C 113.269 29.84 112.841 29.933 112.409 29.997 C 111.911 30.069 111.409 30.104 110.907 30.104 C 107.289 30.104 105.481 28.126 105.484 24.171 Z" fill="rgb(255, 255, 255)"></path><path d="M 131.154 29.766 L 127.862 29.766 L 127.862 27.524 C 127.295 28.349 126.527 29.017 125.632 29.466 C 124.676 29.934 123.623 30.168 122.559 30.149 C 121.226 30.174 119.917 29.797 118.803 29.066 C 117.69 28.323 116.8 27.292 116.227 26.084 C 115.581 24.729 115.26 23.243 115.289 21.743 C 115.257 20.238 115.585 18.747 116.243 17.394 C 116.833 16.183 117.743 15.157 118.877 14.428 C 120.032 13.698 121.377 13.323 122.744 13.35 C 123.763 13.333 124.773 13.552 125.694 13.987 C 126.552 14.397 127.297 15.012 127.862 15.777 L 127.862 13.72 L 131.154 13.72 Z M 127.8 19.344 C 127.47 18.466 126.877 17.712 126.101 17.184 C 125.309 16.652 124.373 16.376 123.419 16.394 C 122.776 16.366 122.136 16.481 121.543 16.73 C 120.951 16.979 120.421 17.356 119.991 17.834 C 119.144 18.797 118.719 20.099 118.716 21.739 C 118.713 23.379 119.124 24.685 119.951 25.656 C 120.36 26.135 120.873 26.514 121.451 26.765 C 122.03 27.016 122.658 27.132 123.287 27.104 C 124.27 27.113 125.234 26.826 126.052 26.281 C 126.849 25.767 127.463 25.014 127.805 24.129 Z" fill="rgb(255, 255, 255)"></path><path d="M 43.254 7.499 C 40.461 7.499 38.276 9.602 36.297 12.276 C 33.582 8.816 31.31 7.499 28.591 7.499 C 23.049 7.499 18.803 14.712 18.803 22.36 C 18.803 27.137 21.111 30.153 24.974 30.153 C 27.764 30.153 29.768 28.836 33.331 22.611 L 35.836 18.18 C 36.194 18.76 36.569 19.381 36.968 20.048 L 38.638 22.858 C 41.893 28.306 43.707 30.153 46.99 30.153 C 50.763 30.153 52.861 27.096 52.861 22.22 C 52.87 14.214 48.529 7.499 43.254 7.499 Z M 30.619 20.912 C 27.739 25.438 26.731 26.454 25.127 26.454 C 23.522 26.454 22.485 25.002 22.485 22.41 C 22.485 16.868 25.25 11.198 28.546 11.198 C 30.327 11.198 31.837 12.231 34.104 15.497 C 31.936 18.826 30.619 20.912 30.619 20.912 Z M 41.522 20.34 L 39.527 17.012 C 38.978 16.137 38.458 15.327 37.967 14.584 C 39.765 11.807 41.259 10.42 43.02 10.42 C 46.686 10.42 49.603 15.827 49.603 22.459 C 49.603 24.989 48.78 26.458 47.056 26.458 C 45.431 26.475 44.645 25.368 41.522 20.34 Z" fill="rgb(0,127,248)"></path></svg>
