<svg xmlns="http://www.w3.org/2000/svg" xmlns:xlink="http://www.w3.org/1999/xlink" viewBox="0 0 113.63 49.68"><g transform="translate(14.626 6.342)"><path d="M 69.016 4.792 L 69.016 5.022 C 68.592 8.425 67.868 11.786 66.85 15.065 L 66.85 15.102 C 65.895 17.89 64.782 20.642 63.549 23.334 C 63.845 23.483 64.171 23.567 64.504 23.578 L 76.055 23.578 C 76.426 23.576 76.79 23.485 77.116 23.312 C 77.441 23.132 77.717 22.879 77.92 22.572 C 79.748 19.961 84.26 12.506 84.26 4.785 Z" fill="rgba(25,132,207,0.4)"></path><path d="M 79.252 34.583 C 79.252 35.058 79.109 35.522 78.841 35.916 C 78.574 36.311 78.193 36.619 77.748 36.802 C 77.304 36.986 76.813 37.032 76.341 36.935 C 75.868 36.846 75.433 36.619 75.093 36.284 C 74.754 35.947 74.522 35.52 74.423 35.056 C 74.333 34.591 74.383 34.11 74.568 33.672 C 74.752 33.235 75.063 32.86 75.461 32.594 C 75.863 32.333 76.334 32.195 76.815 32.194 C 77.136 32.186 77.454 32.246 77.748 32.372 C 78.046 32.489 78.317 32.666 78.545 32.889 C 78.767 33.101 78.945 33.352 79.071 33.629 C 79.195 33.932 79.256 34.256 79.252 34.583 Z" fill="rgba(25,132,207,0.8)"></path><path d="M 67.497 4.837 L 63.458 4.837 C 63.316 6.057 63.09 7.366 62.812 8.734 C 62.631 9.6 62.308 11.256 61.473 14.104 C 61.052 15.531 59.42 20.08 59.074 20.76 C 59.014 20.701 58.397 19.71 58.119 19.222 C 57.458 18.079 56.868 16.899 56.351 15.687 C 56.284 15.524 55.833 14.348 55.757 14.141 C 55.562 13.608 55.246 12.662 55.103 12.262 C 54.324 9.857 53.802 7.378 53.547 4.866 L 47.207 4.866 L 47.207 7.973 L 49.929 7.973 C 50.305 9.999 50.853 11.991 51.568 13.926 C 52.736 17.23 54.399 20.343 56.502 23.164 C 56.732 23.478 56.983 23.777 57.254 24.059 L 57.525 24.377 C 57.186 25.042 56.848 25.767 56.509 26.433 C 56.397 26.655 56.284 26.825 56.171 27.047 C 55.547 28.163 54.923 29.324 54.299 30.382 L 57.983 30.382 C 58.735 29.162 59.563 27.934 60.24 26.684 C 62.263 22.807 63.986 18.784 65.392 14.651 C 66.383 11.446 67.088 8.162 67.497 4.837 Z" fill="rgba(25,132,207,0.8)"></path><path d="M 56.269 4.792 C 56.392 8.824 57.368 12.786 59.134 16.426 C 59.518 15.331 59.886 14.274 60.051 13.697 C 60.804 11.116 61.127 9.57 61.315 8.646 L 61.36 8.446 C 61.646 7.048 61.842 5.85 61.969 4.785 Z" fill="rgba(25,132,207,0.4)"></path><path d="M 57.231 34.583 C 57.231 35.058 57.089 35.521 56.821 35.916 C 56.553 36.311 56.173 36.619 55.727 36.802 C 55.283 36.986 54.793 37.032 54.321 36.935 C 53.848 36.846 53.413 36.619 53.072 36.284 C 52.734 35.947 52.502 35.52 52.403 35.056 C 52.313 34.591 52.363 34.11 52.547 33.672 C 52.732 33.235 53.042 32.86 53.441 32.593 C 53.911 32.288 54.474 32.151 55.034 32.206 C 55.595 32.261 56.118 32.505 56.517 32.897 C 56.967 33.348 57.223 33.952 57.231 34.583 Z" fill="rgba(25,132,207,0.8)"></path><path d="M 9.34 24.902 C 5.264 24.902 2.888 22.846 2.888 18.009 L 2.888 7.891 L 0 7.891 L 0 4.726 L 2.888 4.726 L 2.888 0.222 L 6.904 0 L 6.904 4.726 L 11.89 4.726 L 11.89 7.891 L 6.904 7.891 L 6.904 17.957 C 6.904 20.568 8.04 21.566 10.017 21.566 C 10.801 21.568 11.581 21.476 12.341 21.293 L 12.567 24.458 C 11.519 24.761 10.432 24.91 9.34 24.902 Z" fill="rgba(25,132,207,0.8)"></path><path d="M 25.021 4.223 C 25.971 4.21 26.92 4.304 27.849 4.504 L 27.285 7.832 C 26.644 7.638 25.977 7.546 25.307 7.559 C 23.7 7.535 22.109 7.877 20.659 8.557 L 20.659 24.458 L 16.643 24.458 L 16.643 6.109 C 19.251 4.856 22.118 4.211 25.021 4.223 Z" fill="rgba(25,132,207,0.8)"></path><path d="M 37.362 24.902 C 32.098 24.902 29.496 22.402 29.496 18.985 C 29.496 14.932 32.835 12.928 37.362 12.928 C 38.787 12.934 40.209 13.083 41.604 13.372 L 41.604 11.781 C 41.604 9.06 40.1 7.558 36.911 7.558 C 35.067 7.544 33.238 7.883 31.526 8.557 L 30.736 5.391 C 32.839 4.636 35.063 4.261 37.302 4.282 C 42.792 4.282 45.514 7.055 45.514 12.003 L 45.514 23.178 C 42.981 24.398 40.182 24.99 37.362 24.902 Z M 41.551 21.122 L 41.551 16.004 C 40.32 15.709 39.058 15.561 37.791 15.561 C 35.301 15.561 33.489 16.396 33.489 18.845 C 33.489 20.9 34.993 21.958 37.678 21.958 C 39.022 22.025 40.359 21.737 41.551 21.122 Z" fill="rgba(25,132,207,0.8)"></path></g></svg>
